<svg version="1.1" id="Layer_1" xmlns="http://www.w3.org/2000/svg" xmlns:xlink="http://www.w3.org/1999/xlink" x="0px" y="0px"
	 width="100%" viewBox="0 0 288 288" enable-background="new 0 0 288 288" xml:space="preserve">
<path fill="#FFFFFF" opacity="1.000000" stroke="none" 
	d="
M73.000000,289.000000 
	C49.073139,289.000000 25.146275,289.000000 1.000000,289.000000 
	C1.000000,265.312897 1.000000,241.625107 1.462382,217.380539 
	C14.864491,216.864716 27.850840,217.620102 40.733032,216.779419 
	C60.138931,215.513031 76.800720,207.647415 90.238159,192.808594 
	C91.707527,191.251877 92.926323,189.895523 94.058968,188.470657 
	C115.564903,161.416321 113.746948,120.835686 89.867142,96.689766 
	C74.240372,80.727242 55.618885,72.624664 33.422401,72.969673 
	C22.617388,73.137627 11.807617,72.999550 1.000000,73.000000 
	C1.000000,49.073135 1.000000,25.146271 1.000000,1.000000 
	C24.687109,1.000000 48.374897,1.000000 72.615829,1.462925 
	C73.134224,14.918538 72.380531,27.958639 73.233521,40.892784 
	C74.507233,60.206619 82.402138,76.771667 97.123535,90.189545 
	C98.702141,91.661072 100.058395,92.884460 101.483681,94.021324 
	C128.517807,115.585098 169.310242,113.745514 193.377274,89.797348 
	C209.319214,74.181152 217.376633,55.561314 217.034256,33.393322 
	C216.867538,22.597946 217.001923,11.797920 217.000000,1.000000 
	C240.926865,1.000000 264.853729,1.000000 289.000000,1.000000 
	C289.000000,24.687109 289.000000,48.374897 288.537537,72.618835 
	C275.135529,73.134171 262.149231,72.377815 249.267441,73.219940 
	C229.862762,74.488495 213.199600,82.352020 199.762497,97.191696 
	C198.293045,98.748840 197.074158,100.105209 195.940903,101.529709 
	C174.431381,128.567657 176.249634,169.149719 200.134445,193.310425 
	C215.623581,209.134384 234.068863,217.272568 256.078369,217.022903 
	C267.050934,216.898438 278.026031,217.000443 289.000000,217.000000 
	C289.000000,240.926865 289.000000,264.853729 289.000000,289.000000 
	C265.312897,289.000000 241.625107,289.000000 217.372971,288.538513 
	C216.839157,274.972412 217.614120,261.817017 216.724548,248.775146 
	C215.413422,229.553253 207.490555,213.075409 192.813126,199.753601 
	C191.250397,198.288666 189.891479,197.072968 188.466766,195.939972 
	C161.424957,174.435669 120.643890,176.268768 96.692772,200.136810 
	C80.723373,215.755417 72.630829,234.383499 72.969902,256.578308 
	C73.134972,267.383179 72.999451,278.192627 73.000000,289.000000 
z"/>
<path fill="#FEFEFE" opacity="1.000000" stroke="none" 
	d="
M1.000003,213.000000 
	C1.000000,167.979111 1.000000,122.958214 1.333780,77.526924 
	C11.891637,87.059593 22.076302,97.043594 32.349884,106.935242 
	C44.877895,118.997498 57.480644,130.982132 70.124741,143.399506 
	C70.153038,144.866653 70.107674,145.934677 69.743736,147.114227 
	C58.697292,157.602173 47.995781,168.006012 37.234528,178.347687 
	C25.184576,189.927826 13.080523,201.451675 1.000003,213.000000 
z"/>
<path fill="#FEFEFE" opacity="1.000000" stroke="none" 
	d="
M213.000000,289.000000 
	C167.979111,289.000000 122.958214,289.000000 77.518280,288.664062 
	C86.927650,278.227783 96.795250,268.165253 106.574524,258.017548 
	C118.755753,245.377411 130.864120,232.667068 143.272980,219.927032 
	C143.703613,219.779495 143.865204,219.691971 144.393311,219.675598 
	C146.227356,220.716293 147.921402,221.463364 149.126740,222.690460 
	C159.137451,232.881897 169.093292,243.127945 178.996368,253.424164 
	C190.367920,265.247223 201.668564,277.138397 213.000000,289.000000 
z"/>
<path fill="#FEFFFE" opacity="1.000000" stroke="none" 
	d="
M289.000000,77.000000 
	C289.000000,122.020897 289.000000,167.041794 288.666809,212.470856 
	C278.107300,202.937668 267.920013,192.955719 257.644623,183.065369 
	C245.115067,171.005325 232.511429,159.022232 219.864960,146.605560 
	C219.835861,145.133499 219.881638,144.061783 220.247925,142.883240 
	C231.297913,132.400803 242.001678,121.998459 252.763657,111.656662 
	C264.814972,100.075844 276.918945,88.549850 289.000000,77.000000 
z"/>
<path fill="#FFFFFE" opacity="1.000000" stroke="none" 
	d="
M77.000000,0.999999 
	C122.020897,1.000000 167.041794,1.000000 212.468307,1.332478 
	C206.035294,8.719293 199.182602,15.760067 192.360870,22.830727 
	C177.220810,38.523266 162.096252,54.230797 146.682281,70.004715 
	C146.239838,70.189346 146.080444,70.301468 145.608521,70.409668 
	C144.880508,70.406410 144.465012,70.407066 143.771179,70.191734 
	C131.662994,57.789207 119.802208,45.632526 108.012611,33.407177 
	C97.633720,22.644665 87.334442,11.805378 77.000000,0.999999 
z"/>
<path fill="#425777" opacity="1.000000" stroke="none" 
	d="
M213.399994,289.000000 
	C201.668564,277.138397 190.367920,265.247223 178.996368,253.424164 
	C169.093292,243.127945 159.137451,232.881897 149.126740,222.690460 
	C147.921402,221.463364 146.227356,220.716293 144.706726,219.431671 
	C147.907516,218.754791 151.161377,218.392700 154.415283,218.031235 
	C169.298111,216.377960 182.081146,210.222824 192.986298,200.041336 
	C207.490555,213.075409 215.413422,229.553253 216.724548,248.775146 
	C217.614120,261.817017 216.839157,274.972412 216.904312,288.538513 
	C215.933334,289.000000 214.866653,289.000000 213.399994,289.000000 
z"/>
<path fill="#425777" opacity="1.000000" stroke="none" 
	d="
M143.003952,219.987030 
	C130.864120,232.667068 118.755753,245.377411 106.574524,258.017548 
	C96.795250,268.165253 86.927650,278.227783 77.049622,288.664062 
	C75.933327,289.000000 74.866661,289.000000 73.399994,289.000000 
	C72.999451,278.192627 73.134972,267.383179 72.969902,256.578308 
	C72.630829,234.383499 80.723373,215.755417 96.847275,200.433182 
	C106.390030,208.721008 116.854401,214.154907 128.656281,216.966415 
	C133.408981,218.098633 138.219666,218.987442 143.003952,219.987030 
z"/>
<path fill="#6C895E" opacity="1.000000" stroke="none" 
	d="
M289.000000,76.600006 
	C276.918945,88.549850 264.814972,100.075844 252.763657,111.656662 
	C242.001678,121.998459 231.297913,132.400803 219.964111,142.622086 
	C218.928665,140.210602 218.345978,137.970444 218.091019,135.693588 
	C216.419540,120.767235 210.420685,107.881569 200.052948,97.022659 
	C213.199600,82.352020 229.862762,74.488495 249.267441,73.219940 
	C262.149231,72.377815 275.135529,73.134171 288.537537,73.087494 
	C289.000000,74.066673 289.000000,75.133339 289.000000,76.600006 
z"/>
<path fill="#7B4F81" opacity="1.000000" stroke="none" 
	d="
M1.000003,213.399994 
	C13.080523,201.451675 25.184576,189.927826 37.234528,178.347687 
	C47.995781,168.006012 58.697292,157.602173 70.027283,147.376617 
	C71.067337,149.783646 71.664070,152.022171 71.917480,154.298889 
	C73.579308,169.230133 79.581116,182.115051 89.947479,192.977051 
	C76.800720,207.647415 60.138931,215.513031 40.733032,216.779419 
	C27.850840,217.620102 14.864491,216.864716 1.462382,216.911880 
	C1.000000,215.933334 1.000000,214.866653 1.000003,213.399994 
z"/>
<path fill="#6C895E" opacity="1.000000" stroke="none" 
	d="
M219.939819,147.005875 
	C232.511429,159.022232 245.115067,171.005325 257.644623,183.065369 
	C267.920013,192.955719 278.107300,202.937668 288.666809,212.939514 
	C289.000000,214.066666 289.000000,215.133347 289.000000,216.600006 
	C278.026031,217.000443 267.050934,216.898438 256.078369,217.022903 
	C234.068863,217.272568 215.623581,209.134384 200.434784,193.162384 
	C208.931412,183.938492 214.039352,173.452026 216.989075,161.883545 
	C218.236435,156.991577 218.971771,151.969055 219.939819,147.005875 
z"/>
<path fill="#7B4F81" opacity="1.000000" stroke="none" 
	d="
M70.051064,143.000351 
	C57.480644,130.982132 44.877895,118.997498 32.349884,106.935242 
	C22.076302,97.043594 11.891637,87.059593 1.333780,77.058266 
	C1.000000,75.933327 1.000000,74.866661 1.000000,73.399994 
	C11.807617,72.999550 22.617388,73.137627 33.422401,72.969673 
	C55.618885,72.624664 74.240372,80.727242 89.566345,96.838104 
	C81.198875,106.130562 75.883705,116.501587 73.008720,128.112045 
	C71.793884,133.018127 71.023483,138.034241 70.051064,143.000351 
z"/>
<path fill="#D69929" opacity="1.000000" stroke="none" 
	d="
M76.600006,0.999999 
	C87.334442,11.805378 97.633720,22.644665 108.012611,33.407177 
	C119.802208,45.632526 131.662994,57.789207 143.413086,70.372635 
	C139.572952,71.180069 135.756241,71.309952 132.062317,72.051537 
	C118.719704,74.730171 106.639648,80.010628 96.933319,89.901115 
	C82.402138,76.771667 74.507233,60.206619 73.233521,40.892784 
	C72.380531,27.958639 73.134224,14.918538 73.084488,1.462925 
	C74.066673,1.000000 75.133339,1.000000 76.600006,0.999999 
z"/>
<path fill="#D69928" opacity="1.000000" stroke="none" 
	d="
M146.965363,69.932205 
	C162.096252,54.230797 177.220810,38.523266 192.360870,22.830727 
	C199.182602,15.760067 206.035294,8.719293 212.936966,1.332478 
	C214.066666,1.000000 215.133347,1.000000 216.600006,1.000000 
	C217.001923,11.797920 216.867538,22.597946 217.034256,33.393322 
	C217.376633,55.561314 209.319214,74.181152 193.205780,89.511986 
	C179.807724,77.413338 164.381500,71.672249 146.992538,70.539429 
	C146.985641,70.336929 146.965363,69.932205 146.965363,69.932205 
z"/>
<path fill="#7F5B27" opacity="1.000000" stroke="none" 
	d="
M146.999435,70.741928 
	C164.381500,71.672249 179.807724,77.413338 192.894348,89.616302 
	C169.310242,113.745514 128.517807,115.585098 101.483681,94.021324 
	C100.058395,92.884460 98.702141,91.661072 97.123535,90.189545 
	C106.639648,80.010628 118.719704,74.730171 132.062317,72.051537 
	C135.756241,71.309952 139.572952,71.180069 143.691437,70.588638 
	C144.465012,70.407066 144.880508,70.406410 145.755157,70.548950 
	C146.214310,70.692139 146.601379,70.803917 146.601379,70.803917 
	C146.601379,70.803917 146.999435,70.741928 146.999435,70.741928 
z"/>
<path fill="#4A304E" opacity="1.000000" stroke="none" 
	d="
M70.124741,143.399506 
	C71.023483,138.034241 71.793884,133.018127 73.008720,128.112045 
	C75.883705,116.501587 81.198875,106.130562 89.671127,97.156746 
	C113.746948,120.835686 115.564903,161.416321 94.058968,188.470657 
	C92.926323,189.895523 91.707527,191.251877 90.238159,192.808594 
	C79.581116,182.115051 73.579308,169.230133 71.917480,154.298889 
	C71.664070,152.022171 71.067337,149.783646 70.345856,147.265076 
	C70.107674,145.934677 70.153038,144.866653 70.124741,143.399506 
z"/>
<path fill="#404E37" opacity="1.000000" stroke="none" 
	d="
M219.864960,146.605560 
	C218.971771,151.969055 218.236435,156.991577 216.989075,161.883545 
	C214.039352,173.452026 208.931412,183.938492 200.328918,192.844238 
	C176.249634,169.149719 174.431381,128.567657 195.940903,101.529709 
	C197.074158,100.105209 198.293045,98.748840 199.762497,97.191696 
	C210.420685,107.881569 216.419540,120.767235 218.091019,135.693588 
	C218.345978,137.970444 218.928665,140.210602 219.643585,142.728897 
	C219.881638,144.061783 219.835861,145.133499 219.864960,146.605560 
z"/>
<path fill="#27364B" opacity="1.000000" stroke="none" 
	d="
M143.272980,219.927032 
	C138.219666,218.987442 133.408981,218.098633 128.656281,216.966415 
	C116.854401,214.154907 106.390030,208.721008 97.169098,200.337219 
	C120.643890,176.268768 161.424957,174.435669 188.466766,195.939972 
	C189.891479,197.072968 191.250397,198.288666 192.813126,199.753601 
	C182.081146,210.222824 169.298111,216.377960 154.415283,218.031235 
	C151.161377,218.392700 147.907516,218.754791 144.340210,219.360535 
	C143.865204,219.691971 143.703613,219.779495 143.272980,219.927032 
z"/>
<path fill="#D69929" opacity="1.000000" stroke="none" 
	d="
M146.992538,70.539429 
	C146.999435,70.741928 146.601379,70.803917 146.601379,70.803917 
	C146.601379,70.803917 146.214310,70.692139 146.067688,70.552864 
	C146.080444,70.301468 146.239838,70.189346 146.682281,70.004715 
	C146.965363,69.932205 146.985641,70.336929 146.992538,70.539429 
z"/>
</svg>